<?xml version="1.0" encoding="UTF-8"?>
<svg width="24px" height="24px" viewBox="0 0 24 24" version="1.1" xmlns="http://www.w3.org/2000/svg" xmlns:xlink="http://www.w3.org/1999/xlink">
    <symbol id="facebook" stroke="none" stroke-width="1" fill="none" fill-rule="evenodd">
        <path d="M23.9981,11.9991 C23.9981,5.37216 18.626,0 11.9991,0 C5.37216,0 0,5.37216 0,11.9991 C0,17.9882 4.38789,22.9522 10.1242,23.8524 L10.1242,15.4676 L7.07758,15.4676 L7.07758,11.9991 L10.1242,11.9991 L10.1242,9.35553 C10.1242,6.34826 11.9156,4.68714 14.6564,4.68714 C15.9692,4.68714 17.3424,4.92149 17.3424,4.92149 L17.3424,7.87439 L15.8294,7.87439 C14.3388,7.87439 13.8739,8.79933 13.8739,9.74824 L13.8739,11.9991 L17.2018,11.9991 L16.6698,15.4676 L13.8739,15.4676 L13.8739,23.8524 C19.6103,22.9522 23.9981,17.9882 23.9981,11.9991 Z" id="Path" fill="#3C3744" fill-rule="nonzero"></path>
    </symbol>
    <symbol id="github" stroke="none" stroke-width="1" fill="none" fill-rule="evenodd">
        <path d="M12,0.297 C5.37,0.297 0,5.67 0,12.297 C0,17.6 3.438,22.097 8.205,23.682 C8.805,23.795 9.025,23.424 9.025,23.105 C9.025,22.82 9.015,22.065 9.01,21.065 C5.672,21.789 4.968,19.455 4.968,19.455 C4.422,18.07 3.633,17.7 3.633,17.7 C2.546,16.956 3.717,16.971 3.717,16.971 C4.922,17.055 5.555,18.207 5.555,18.207 C6.625,20.042 8.364,19.512 9.05,19.205 C9.158,18.429 9.467,17.9 9.81,17.6 C7.145,17.3 4.344,16.268 4.344,11.67 C4.344,10.36 4.809,9.29 5.579,8.45 C5.444,8.147 5.039,6.927 5.684,5.274 C5.684,5.274 6.689,4.952 8.984,6.504 C9.944,6.237 10.964,6.105 11.984,6.099 C13.004,6.105 14.024,6.237 14.984,6.504 C17.264,4.952 18.269,5.274 18.269,5.274 C18.914,6.927 18.509,8.147 18.389,8.45 C19.154,9.29 19.619,10.36 19.619,11.67 C19.619,16.28 16.814,17.295 14.144,17.59 C14.564,17.95 14.954,18.686 14.954,19.81 C14.954,21.416 14.939,22.706 14.939,23.096 C14.939,23.411 15.149,23.786 15.764,23.666 C20.565,22.092 24,17.592 24,12.297 C24,5.67 18.627,0.297 12,0.297" id="Path" fill="#3C3744" fill-rule="nonzero"></path>
    </symbol>
    <symbol id="instagram" stroke="none" stroke-width="1" fill="none" fill-rule="evenodd">
        <path d="M12,0 C8.74,0 8.333,0.015 7.053,0.072 C5.775,0.132 4.905,0.333 4.14,0.63 C3.351,0.936 2.681,1.347 2.014,2.014 C1.347,2.681 0.935,3.35 0.63,4.14 C0.333,4.905 0.131,5.775 0.072,7.053 C0.012,8.333 0,8.74 0,12 C0,15.26 0.015,15.667 0.072,16.947 C0.132,18.224 0.333,19.095 0.63,19.86 C0.936,20.648 1.347,21.319 2.014,21.986 C2.681,22.652 3.35,23.065 4.14,23.37 C4.906,23.666 5.776,23.869 7.053,23.928 C8.333,23.988 8.74,24 12,24 C15.26,24 15.667,23.985 16.947,23.928 C18.224,23.868 19.095,23.666 19.86,23.37 C20.648,23.064 21.319,22.652 21.986,21.986 C22.652,21.319 23.065,20.651 23.37,19.86 C23.666,19.095 23.869,18.224 23.928,16.947 C23.988,15.667 24,15.26 24,12 C24,8.74 23.985,8.333 23.928,7.053 C23.868,5.776 23.666,4.904 23.37,4.14 C23.064,3.351 22.652,2.681 21.986,2.014 C21.319,1.347 20.651,0.935 19.86,0.63 C19.095,0.333 18.224,0.131 16.947,0.072 C15.667,0.012 15.26,0 12,0 Z M12,2.16 C15.203,2.16 15.585,2.176 16.85,2.231 C18.02,2.286 18.655,2.48 19.077,2.646 C19.639,2.863 20.037,3.123 20.459,3.542 C20.878,3.962 21.138,4.361 21.355,4.923 C21.519,5.345 21.715,5.98 21.768,7.15 C21.825,8.416 21.838,8.796 21.838,12 C21.838,15.204 21.823,15.585 21.764,16.85 C21.703,18.02 21.508,18.655 21.343,19.077 C21.119,19.639 20.864,20.037 20.444,20.459 C20.025,20.878 19.62,21.138 19.064,21.355 C18.644,21.519 17.999,21.715 16.829,21.768 C15.555,21.825 15.18,21.838 11.97,21.838 C8.759,21.838 8.384,21.823 7.111,21.764 C5.94,21.703 5.295,21.508 4.875,21.343 C4.306,21.119 3.915,20.864 3.496,20.444 C3.075,20.025 2.806,19.62 2.596,19.064 C2.431,18.644 2.237,17.999 2.176,16.829 C2.131,15.569 2.115,15.18 2.115,11.985 C2.115,8.789 2.131,8.399 2.176,7.124 C2.237,5.954 2.431,5.31 2.596,4.89 C2.806,4.32 3.075,3.93 3.496,3.509 C3.915,3.09 4.306,2.82 4.875,2.611 C5.295,2.445 5.926,2.25 7.096,2.19 C8.371,2.145 8.746,2.13 11.955,2.13 L12,2.16 L12,2.16 Z M12,5.838 C8.595,5.838 5.838,8.598 5.838,12 C5.838,15.405 8.598,18.162 12,18.162 C15.405,18.162 18.162,15.402 18.162,12 C18.162,8.595 15.402,5.838 12,5.838 Z M12,16 C9.79,16 8,14.21 8,12 C8,9.79 9.79,8 12,8 C14.21,8 16,9.79 16,12 C16,14.21 14.21,16 12,16 Z M19.846,5.595 C19.846,6.39 19.2,7.035 18.406,7.035 C17.611,7.035 16.966,6.389 16.966,5.595 C16.966,4.801 17.612,4.15599884 18.406,4.15599884 C19.199,4.155 19.846,4.801 19.846,5.595 Z" id="Shape" fill="#3C3744" fill-rule="nonzero"></path>
    </symbol>
    <symbol id="twitch" stroke="none" stroke-width="1" fill="none" fill-rule="evenodd">
        <path d="M11.571,4.714 L13.286,4.714 L13.286,9.857 L11.57,9.857 L11.571,4.714 Z M16.286,4.714 L18,4.714 L18,9.857 L16.286,9.857 L16.286,4.714 Z M6,0 L1.714,4.286 L1.714,19.714 L6.857,19.714 L6.857,24 L11.143,19.714 L14.571,19.714 L22.286,12 L22.286,0 L6,0 Z M20.571,11.143 L17.143,14.571 L13.714,14.571 L10.714,17.571 L10.714,14.571 L6.857,14.571 L6.857,1.714 L20.571,1.714 L20.571,11.143 Z" id="Shape" fill="#3C3744" fill-rule="nonzero"></path>
    </symbol>
    <symbol id="twitter" stroke="none" stroke-width="1" fill="none" fill-rule="evenodd">
        <path d="M23.954,4.569 C23.069,4.958 22.124,5.223 21.129,5.344 C22.143,4.733 22.923,3.77 23.292,2.621 C22.341,3.176 21.287,3.58 20.165,3.805 C19.269,2.846 17.992,2.246 16.574,2.246 C13.857,2.246 11.654,4.449 11.654,7.163 C11.654,7.553 11.699,7.928 11.781,8.287 C7.691,8.094 4.066,6.13 1.64,3.161 C1.213,3.883 0.974,4.722 0.974,5.636 C0.974,7.346 1.844,8.849 3.162,9.732 C2.355,9.706 1.596,9.484 0.934,9.116 L0.934,9.177 C0.934,11.562 2.627,13.551 4.88,14.004 C4.467,14.115 4.031,14.175 3.584,14.175 C3.27,14.175 2.969,14.145 2.668,14.089 C3.299,16.042 5.113,17.466 7.272,17.506 C5.592,18.825 3.463,19.611 1.17,19.611 C0.78,19.611 0.391,19.588 0,19.544 C2.189,20.938 4.768,21.753 7.557,21.753 C16.611,21.753 21.556,14.257 21.556,7.767 C21.556,7.558 21.556,7.347 21.541,7.137 C22.502,6.448 23.341,5.577 24.001,4.589 L23.954,4.569 Z" id="Path" fill="#3C3744" fill-rule="nonzero"></path>
    </symbol>
    <symbol id="youtube" stroke="none" stroke-width="1" fill="none" fill-rule="evenodd">
        <path d="M23.495,6.205 C23.212191,5.19165677 22.4203432,4.39980902 21.407,4.117 C19.537,3.61598581 12.011,3.61598581 12.011,3.61598581 C12.011,3.61598581 4.504,3.606 2.615,4.117 C1.60165677,4.39980902 0.809809023,5.19165677 0.527,6.205 C0.172520594,8.11951056 -0.00223945169,10.0629628 0.00478400759,12.01 C-0.000870868833,13.9496902 0.173883448,15.8857136 0.527,17.793 C0.809809023,18.8063432 1.60165677,19.598191 2.615,19.881 C4.483,20.383 12.011,20.383 12.011,20.383 C12.011,20.383 19.517,20.383 21.407,19.881 C22.4203432,19.598191 23.212191,18.8063432 23.495,17.793 C23.8407392,15.8850228 24.0081279,13.949005 23.995,12.01 C24.0094964,10.0636506 23.8421022,8.12020397 23.495,6.205 L23.495,6.205 Z M9.609,15.601 L9.609,8.408 L15.873,12.01 L9.609,15.601 Z" id="Shape" fill="#3C3744" fill-rule="nonzero"></path>
    </symbol>
</svg>
